<svg xmlns="http://www.w3.org/2000/svg" width="410" height="404" viewBox="0 0 410 404" fill="none">
  <path d="M399.641 59.524C364.886 14.425 309.393 0 256.277 0H153.723C100.61 0 45.113 14.425 10.359 59.524C-24.395 104.623 -1.714 160.237 21.418 207.56C57.488 281.94 98.965 352.726 144.318 404C158.806 420.104 181.194 420.104 195.682 404C241.035 352.726 282.512 281.94 318.582 207.56C341.714 160.237 364.395 104.623 399.641 59.524Z" fill="url(#paint0_linear)"/>
  <path d="M292.965 86.5801C322.214 86.5801 345.965 112.285 345.965 143.204C345.965 174.122 322.214 199.827 292.965 199.827H116.965C87.7157 199.827 63.9651 174.122 63.9651 143.204C63.9651 112.285 87.7157 86.5801 116.965 86.5801H292.965Z" fill="url(#paint1_linear)"/>
  <path d="M235.297 86.5801C266.907 86.5801 292.965 112.285 292.965 143.204C292.965 174.122 266.907 199.827 235.297 199.827H175.297C143.688 199.827 117.629 174.122 117.629 143.204C117.629 112.285 143.688 86.5801 175.297 86.5801H235.297Z" fill="white"/>
  <defs>
    <linearGradient id="paint0_linear" x1="-24.282" y1="-3.973" x2="343.293" y2="418.97" gradientUnits="userSpaceOnUse">
      <stop stop-color="#41D1FF"/>
      <stop offset="1" stop-color="#BD34FE"/>
    </linearGradient>
    <linearGradient id="paint1_linear" x1="47.507" y1="26.143" x2="303.729" y2="284.435" gradientUnits="userSpaceOnUse">
      <stop stop-color="#FFEA83"/>
      <stop offset="0.083" stop-color="#FFDD35"/>
      <stop offset="1" stop-color="#FFA800"/>
    </linearGradient>
  </defs>
</svg>
